# xmcd
#
# Track frame offsets:
#	150
#	20000
#	40907
#	60507
#	77282
#	97775
#	117562
#	134962
#	155715
#	174095
#	198992
#	214410
#	230167
#	259677
#	275417
#	294862
#
# Disc length: 4313 seconds
#
# Revision: 0
# Processed by: cddbd v1.5.2PL0 Copyright (c) Steve Scherf et al.
# Submitted via: EasyCDDAExtractor 10.0.5.1
#
DISCID=e410d710
DTITLE=Various Artist - Summerdance
DYEAR=1996
DGENRE=Dance
TTITLE0=Juan Antonio Canta - Rap de los 40 liomones [Original]
TTITLE1=Peter Andre - Misterious girl
TTITLE2=George Michael - Fast love [rmx]
TTITLE3=Inner Cicle - Da bomb
TTITLE4=Hysteric ego - Want love 
TTITLE5=Beat System - Reggae night
TTITLE6=Pet Shop Boys - Se a vida é
TTITLE7=Pandera - I love you baby
TTITLE8=Michael Jackson - Stranger in Moscow
TTITLE9=Junior Velazquez - If Madonna calls
TTITLE10=La Bouche - Dulces sueños
TTITLE11=Carrapicho - Tic, tic, tack
TTITLE12=Mad Mix - Megamix
TTITLE13=Beck - Where it's at
TTITLE14=Juan Antonio canta - Rap de los 40 limones [rmx]
TTITLE15=Luis Miguel - Dame [rmx]
EXTD=
EXTT0=
EXTT1=
EXTT2=
EXTT3=
EXTT4=
EXTT5=
EXTT6=
EXTT7=
EXTT8=
EXTT9=
EXTT10=
EXTT11=
EXTT12=
EXTT13=
EXTT14=
EXTT15=
PLAYORDER=
